mtllib mission3.mtl
# vertices
v -256 -16 -96
v -256 -16 96
v -256 16 96
v -256 16 -96
v 256 16 96
v 256 -16 96
v 256 -16 -96
v 256 16 -96
v -256 16 96
v -256 16 112
v -256 128 112
v -256 128 96
v 256 128 112
v 256 16 112
v 256 16 96
v 256 128 96
v -256 16 -112
v -256 16 -96
v -256 128 -96
v -256 128 -112
v 256 128 -96
v 256 16 -96
v 256 16 -112
v 256 128 -112
v -256 128 -96
v -256 128 96
v -256 144 96
v -256 144 -96
v 256 144 96
v 256 128 96
v 256 128 -96
v 256 144 -96
v 256 16 -96
v 256 16 96
v 256 128 96
v 256 128 -96
v 272 128 96
v 272 16 96
v 272 16 -96
v 272 128 -96
v 128 16 -0
v 128 16 96
v 128 64 96
v 128 64 -0
v 144 64 96
v 144 16 96
v 144 16 -0
v 144 64 -0
v -48 64 -0
v -48 64 96
v -48 80 96
v -48 80 -0
v 144 80 96
v 144 64 96
v 144 64 -0
v 144 80 -0
v -48 16 -0
v -48 16 96
v -48 64 96
v -48 64 -0
v -32 64 96
v -32 16 96
v -32 16 -0
v -32 64 -0
v 96 16 -0
v 96 16 16
v 96 64 16
v 96 64 -0
v 128 64 16
v 128 16 16
v 128 16 -0
v 128 64 -0
v -48 80 -0
v -224 16 -0
v -224 16 96
v -48 80 96
v -48 16 96
v -48 16 -0
v -256 16 -96
v -256 16 -48
v -256 128 -48
v -256 128 -96
v -240 128 -48
v -240 16 -48
v -240 16 -96
v -240 128 -96
v -256 16 48
v -256 16 96
v -256 128 96
v -256 128 48
v -240 128 96
v -240 16 96
v -240 16 48
v -240 128 48
v -256 96 -48
v -256 96 48
v -256 128 48
v -256 128 -48
v -240 128 48
v -240 96 48
v -240 96 -48
v -240 128 -48

# texture coordinates
vt -0.09375 -0.015625
vt 0.09375 -0.015625
vt 0.09375 0.015625
vt -0.09375 0.015625
vt 0.25 0.015625
vt -0.25 0.015625
vt -0.25 -0.015625
vt 0.25 -0.015625
vt 0.25 0.09375
vt -0.25 0.09375
vt -0.25 -0.09375
vt 0.25 -0.09375
vt 0.9375 -0.15625
vt 1.09375 -0.15625
vt 1.09375 -1.25
vt 0.9375 -1.25
vt 2.5 1.25
vt -2.5 1.25
vt -2.5 0.15625
vt 2.5 0.15625
vt 2.5 -1.09375
vt -2.5 -1.09375
vt -2.5 -0.9375
vt 2.5 -0.9375
vt -1.09375 -0.15625
vt -0.9375 -0.15625
vt -0.9375 -1.25
vt -1.09375 -1.25
vt 2.5 0.9375
vt -2.5 0.9375
vt -2.5 1.09375
vt 2.5 1.09375
vt -0.09375 0.125
vt 0.09375 0.125
vt 0.09375 0.140625
vt -0.09375 0.140625
vt 0.25 0.140625
vt -0.25 0.140625
vt -0.25 0.125
vt 0.25 0.125
vt 0.9375 0.15625
vt -0.9375 0.15625
vt -0.9375 1.25
vt 0.9375 1.25
vt 2.65625 1.25
vt 2.65625 0.15625
vt 2.65625 -0.9375
vt 2.65625 0.9375
vt 0 0.15625
vt -0.9375 0.625
vt 0 0.625
vt 0.140625 0.0625
vt 0.125 0.0625
vt 0.125 0.015625
vt 0.140625 0.015625
vt 0.140625 -0.09375
vt 0.125 -0.09375
vt 0.125 -0
vt 0.140625 -0
vt 0 0.0625
vt -0.09375 0.0625
vt 0 0.015625
vt 0 0.046875
vt -0.09375 0.046875
vt -0.046875 0.0625
vt -0.046875 0.046875
vt 0.140625 0.046875
vt -0.046875 -0.09375
vt -0.046875 -0
vt -0.0078125 0.0234375
vt -0.1015625 0.0234375
vt -0.1015625 0.0703125
vt -0.0078125 0.0703125
vt -0.03125 0.0625
vt -0.046875 0.015625
vt -0.03125 0.015625
vt -0.03125 -0.09375
vt -0.03125 -0
vt -0.0078125 0.6328125
vt -0.9453125 0.6328125
vt -0.9453125 0.1640625
vt -0.0078125 0.1640625
vt -0.015625 0.015625
vt -0.015625 0.0625
vt 1.25 0.625
vt 0.9375 0.625
vt 1.25 0.15625
vt 0.125 -0.015625
vt 0.09375 -0
vt 0.09375 0.0625
vt 0.109375 0.015625
vt 0.109375 0.1875
vt 0.015625 0.1875
vt 0.015625 0.015625
vt -0.203125 0.015624996
vt -0.265625 0.1875
vt -0.265625 0.015624996
vt -0.203125 0.109375
vt -0.203125 0.015625
vt -0.265625 0.015625
vt -0.265625 0.109375
vt -0.140625 0.015625
vt -0.140625 0.125
vt -0.203125 0.125
vt -0.21875 0.125
vt -0.21875 0.015625
vt -0.203125 -0.140625
vt -0.21875 -0.140625
vt -0.21875 -0.09375
vt -0.203125 -0.09375
vt 0.046875 0.09375
vt -0.046875 0.09375
vt -0.046875 0.125
vt 0.046875 0.125
vt -0.234375 0.125
vt -0.234375 0.09375
vt -0.234375 -0.046875
vt -0.25 -0.046875
vt -0.25 0.046875
vt -0.234375 0.046875

# normals
vn -1 0 0
vn 0 0 1
vn 0 -1 -0
vn -0 1 -0
vn 0 -0 -1
vn 1 0 0
vn -0.3417430630867044 0.939793423488437 -0

o entity0_brush0
usemtl seamless/100_1180_seamless
f  1/1/1  2/2/1  3/3/1  4/4/1
usemtl seamless/100_1180_seamless
f  5/5/2  3/6/2  2/7/2  6/8/2
usemtl seamless/100_1180_seamless
f  6/9/3  2/10/3  1/11/3  7/12/3
usemtl seamless/100_1180_seamless
f  8/12/4  4/11/4  3/10/4  5/9/4
usemtl seamless/100_1180_seamless
f  7/8/5  1/7/5  4/6/5  8/5/5
usemtl seamless/100_1180_seamless
f  8/4/6  5/3/6  6/2/6  7/1/6

o entity0_brush1
usemtl seamless/100_1453_seamless
f  9/13/1  10/14/1  11/15/1  12/16/1
usemtl seamless/100_1453_seamless
f  13/17/2  11/18/2  10/19/2  14/20/2
usemtl seamless/100_1453_seamless
f  14/21/3  10/22/3  9/23/3  15/24/3
usemtl seamless/100_1453_seamless
f  16/24/4  12/23/4  11/22/4  13/21/4
usemtl seamless/100_1453_seamless
f  15/20/5  9/19/5  12/18/5  16/17/5
usemtl seamless/100_1453_seamless
f  16/16/6  13/15/6  14/14/6  15/13/6

o entity0_brush2
usemtl seamless/100_1453_seamless
f  17/25/1  18/26/1  19/27/1  20/28/1
usemtl seamless/100_1453_seamless
f  21/17/2  19/18/2  18/19/2  22/20/2
usemtl seamless/100_1453_seamless
f  22/29/3  18/30/3  17/31/3  23/32/3
usemtl seamless/100_1453_seamless
f  24/32/4  20/31/4  19/30/4  21/29/4
usemtl seamless/100_1453_seamless
f  23/20/5  17/19/5  20/18/5  24/17/5
usemtl seamless/100_1453_seamless
f  24/28/6  21/27/6  22/26/6  23/25/6

o entity0_brush3
usemtl seamless/100_1374_seamless
f  25/33/1  26/34/1  27/35/1  28/36/1
usemtl seamless/100_1374_seamless
f  29/37/2  27/38/2  26/39/2  30/40/2
usemtl seamless/100_1377_seamless
f  30/9/3  26/10/3  25/11/3  31/12/3
usemtl seamless/100_1374_seamless
f  32/12/4  28/11/4  27/10/4  29/9/4
usemtl seamless/100_1374_seamless
f  31/40/5  25/39/5  28/38/5  32/37/5
usemtl seamless/100_1374_seamless
f  32/36/6  29/35/6  30/34/6  31/33/6

o entity0_brush4
usemtl seamless/100_1174_seamless
f  33/41/1  34/42/1  35/43/1  36/44/1
usemtl seamless/100_1174_seamless
f  37/45/2  35/17/2  34/20/2  38/46/2
usemtl seamless/100_1174_seamless
f  38/47/3  34/24/3  33/29/3  39/48/3
usemtl seamless/100_1174_seamless
f  40/48/4  36/29/4  35/24/4  37/47/4
usemtl seamless/100_1174_seamless
f  39/46/5  33/20/5  36/17/5  40/45/5
usemtl seamless/100_1174_seamless
f  40/44/6  37/43/6  38/42/6  39/41/6

o entity0_brush5
usemtl seamless/100_1174_seamless
f  41/49/1  42/42/1  43/50/1  44/51/1
usemtl seamless/100_1377_seamless
f  45/52/2  43/53/2  42/54/2  46/55/2
usemtl seamless/100_1377_seamless
f  46/56/3  42/57/3  41/58/3  47/59/3
usemtl seamless/100_1377_seamless
f  48/59/4  44/58/4  43/57/4  45/56/4
usemtl seamless/100_1377_seamless
f  47/55/5  41/54/5  44/53/5  48/52/5
usemtl seamless/100_1377_seamless
f  48/60/6  45/61/6  46/4/6  47/62/6

o entity0_brush6
usemtl seamless/100_1377_seamless
f  49/63/1  50/64/1  51/61/1  52/60/1
usemtl seamless/100_1377_seamless
f  53/52/2  51/65/2  50/66/2  54/67/2
usemtl seamless/100_1377_seamless
f  54/56/3  50/68/3  49/69/3  55/59/3
usemtl seamless/100_1377_seamless
f  56/59/4  52/69/4  51/68/4  53/56/4
usemtl seamless/100_1377_seamless
f  55/67/5  49/66/5  52/65/5  56/52/5
usemtl seamless/100_1377_seamless
f  56/60/6  53/61/6  54/64/6  55/63/6

o entity0_brush7
usemtl seamless/100_1377_seamless
f  57/70/1  58/71/1  59/72/1  60/73/1
usemtl seamless/100_1377_seamless
f  61/74/2  59/65/2  58/75/2  62/76/2
usemtl seamless/100_1377_seamless
f  62/77/3  58/68/3  57/69/3  63/78/3
usemtl seamless/100_1377_seamless
f  64/78/4  60/69/4  59/68/4  61/77/4
usemtl seamless/100_1377_seamless
f  63/76/5  57/75/5  60/65/5  64/74/5
usemtl seamless/100_1174_seamless
f  64/79/6  61/80/6  62/81/6  63/82/6

o entity0_brush8
usemtl seamless/100_1377_seamless
f  65/62/1  66/83/1  67/84/1  68/60/1
usemtl seamless/100_1174_seamless
f  69/85/2  67/86/2  66/41/2  70/87/2
usemtl seamless/100_1377_seamless
f  70/88/3  66/2/3  65/89/3  71/58/3
usemtl seamless/100_1377_seamless
f  72/58/4  68/89/4  67/2/4  69/88/4
usemtl seamless/100_1377_seamless
f  71/54/5  65/3/5  68/90/5  72/53/5
usemtl seamless/100_1377_seamless
f  72/60/6  69/84/6  70/83/6  71/62/6

o entity0_brush9
usemtl seamless/100_1453_seamless
f  73/91/7  74/92/7  75/93/7  76/94/7
usemtl seamless/100_1453_seamless
f  76/95/2  75/96/2  77/97/2
usemtl seamless/100_1453_seamless
f  77/94/3  75/93/3  74/92/3  78/91/3
usemtl seamless/100_1453_seamless
f  78/97/5  74/96/5  73/95/5
usemtl seamless/100_1453_seamless
f  73/98/6  76/99/6  77/100/6  78/101/6

o entity0_brush10
usemtl seamless/100_1453_seamless
f  79/4/1  80/102/1  81/103/1  82/33/1
usemtl seamless/100_1453_seamless
f  83/104/2  81/105/2  80/106/2  84/99/2
usemtl seamless/100_1453_seamless
f  84/107/3  80/108/3  79/109/3  85/110/3
usemtl seamless/100_1453_seamless
f  86/110/4  82/109/4  81/108/4  83/107/4
usemtl seamless/100_1453_seamless
f  85/99/5  79/106/5  82/105/5  86/104/5
usemtl seamless/100_1453_seamless
f  86/33/6  83/103/6  84/102/6  85/4/6

o entity0_brush11
usemtl seamless/100_1453_seamless
f  87/4/1  88/102/1  89/103/1  90/33/1
usemtl seamless/100_1453_seamless
f  91/104/2  89/105/2  88/106/2  92/99/2
usemtl seamless/100_1453_seamless
f  92/107/3  88/108/3  87/109/3  93/110/3
usemtl seamless/100_1453_seamless
f  94/110/4  90/109/4  89/108/4  91/107/4
usemtl seamless/100_1453_seamless
f  93/99/5  87/106/5  90/105/5  94/104/5
usemtl seamless/100_1453_seamless
f  94/33/6  91/103/6  92/102/6  93/4/6

o entity0_brush12
usemtl seamless/100_1453_seamless
f  95/111/1  96/112/1  97/113/1  98/114/1
usemtl seamless/100_1453_seamless
f  99/115/2  97/39/2  96/10/2  100/116/2
usemtl seamless/100_1453_seamless
f  100/117/3  96/118/3  95/119/3  101/120/3
usemtl seamless/100_1453_seamless
f  102/120/4  98/119/4  97/118/4  99/117/4
usemtl seamless/100_1453_seamless
f  101/116/5  95/10/5  98/39/5  102/115/5
usemtl seamless/100_1453_seamless
f  102/114/6  99/113/6  100/112/6  101/111/6

